# xmcd CD database file
#
# Track frame offsets:
#	150
#	14673
#	31811
#	49416
#	73750
#	86252
#	103576
#	119571
#	139280
#	157560
#	185440
#	196919
#	211171
#	229834
#	250396
#
# Disc length: 3688 seconds
#
# Revision: 0
# Processed by: cddbd v1.5.2PL0 Copyright (c) Steve Scherf et al.
# Submitted via: CDex 1.51
#
DISCID=cd0e660f
DTITLE=Various Artist - Classic Jazz - the Ultimate Collection [CD4)
DYEAR=2007
DGENRE=Jazz
TTITLE0=Miles Davis Quintet - Donna
TTITLE1=OscarPeterson Trio - Slow Down
TTITLE2=Billie Holiday and Her Orchestra - Autumn in New York
TTITLE3=Tadd Dameron and His Orchestra - Dial 'B' for Beauty
TTITLE4=Chet Baker Quartet - The Time the Dream's on Me
TTITLE5=Miles Davis Quintet - Tempus Fugit
TTITLE6=Mile Davis Quintet - CTA
TTITLE7=JJ Johnson Sextet - Turnpike
TTITLE8=Clifford Brown Sextet - Wait Bait
TTITLE9=Gigi Gryce and His Orchestra - Brown Skins
TTITLE10=Sarah Vaughan and Her Trio - If I Knew Then (What I Known Now)
TTITLE11=Erroll Garner Trio - There's a Small Hotel
TTITLE12=Oscar Peterson Trio - I Only Have Eyes For You
TTITLE13=Chet Baker Sextet - Dot's Groovy
TTITLE14=Miles Davis Quartet feat John Coltrane - The Theme
EXTD=YEAR: 2007
EXTT0=
EXTT1=
EXTT2=
EXTT3=
EXTT4=
EXTT5=
EXTT6=
EXTT7=
EXTT8=
EXTT9=
EXTT10=
EXTT11=
EXTT12=
EXTT13=
EXTT14=
PLAYORDER=
